<?xml version="1.0" encoding="UTF-8" standalone="no"?>
<svg
   xmlns:dc="http://purl.org/dc/elements/1.1/"
   xmlns:cc="http://creativecommons.org/ns#"
   xmlns:rdf="http://www.w3.org/1999/02/22-rdf-syntax-ns#"
   xmlns:svg="http://www.w3.org/2000/svg"
   xmlns="http://www.w3.org/2000/svg"
   xmlns:sodipodi="http://sodipodi.sourceforge.net/DTD/sodipodi-0.dtd"
   xmlns:inkscape="http://www.inkscape.org/namespaces/inkscape"
   inkscape:version="1.0 (4035a4fb49, 2020-05-01)"
   sodipodi:docname="football-stadium-svgrepo-com.svg"
   id="svg8"
   version="1.1"
   viewBox="0 0 210 297"
   height="297mm"
   width="210mm">
  <defs
     id="defs2" />
  <sodipodi:namedview
     inkscape:window-maximized="1"
     inkscape:window-y="-8"
     inkscape:window-x="-8"
     inkscape:window-height="1017"
     inkscape:window-width="1920"
     showgrid="false"
     inkscape:document-rotation="0"
     inkscape:current-layer="layer1"
     inkscape:document-units="mm"
     inkscape:cy="560"
     inkscape:cx="400"
     inkscape:zoom="0.32586207"
     inkscape:pageshadow="2"
     inkscape:pageopacity="0.0"
     borderopacity="1.0"
     bordercolor="#666666"
     pagecolor="#ffffff"
     id="base" />
  <metadata
     id="metadata5">
    <rdf:RDF>
      <cc:Work
         rdf:about="">
        <dc:format>image/svg+xml</dc:format>
        <dc:type
           rdf:resource="http://purl.org/dc/dcmitype/StillImage" />
        <dc:title></dc:title>
      </cc:Work>
    </rdf:RDF>
  </metadata>
  <g
     id="layer1"
     inkscape:groupmode="layer"
     inkscape:label="Capa 1">
    <g
       transform="matrix(7.4736028,0,0,7.4736028,-116.78734,-76.022488)"
       id="g853">
      <path
         d="m 27.393004,43.221752 c -1.76875,0 -3.20125,1.4325 -3.20125,3.2 0,1.7675 1.4325,3.2 3.20125,3.2 1.7675,0 3.2,-1.4325 3.2,-3.2 0,-1.7675 -1.4325,-3.2 -3.2,-3.2"
         style="fill:#000000;fill-opacity:1;fill-rule:nonzero;stroke:none"
         id="path839" />
      <path
         d="m 23.994254,16.091751 c 1.60625,0 2.90875,-1.3025 2.90875,-2.90875 0,-1.60625 -1.3025,-2.90875 -2.90875,-2.90875 -1.60625,0 -2.9075,1.3025 -2.9075,2.90875 0,1.60625 1.30125,2.90875 2.9075,2.90875"
         style="fill:#000000;fill-opacity:1;fill-rule:nonzero;stroke:none"
         id="path841" />
      <path
         d="m 35.148005,36.943002 c 0.13875,0.22375 0.30875,0.425 0.50625,0.595 l 4.59625,3.995 2.8225,-1.63 -4.36125,-5.48375 -7.3925,-14.5075 c 1.23375,-0.1675 2.48625,-0.255 3.73125,-0.255 2.4575,0 4.89625,0.3275 7.25125,0.9725 l 1.2475,-2.16125 c -3.7075,-1.48375 -7.7525,-2.3025 -11.99125,-2.3025 -4.33875,0 -8.47875,0.84375 -12.25875,2.395 -0.23375,0.09375 -0.43875,0.24375 -0.60125,0.43 -1.845,2.13875 -2.8925,4.87 -2.8925,7.9225 0,2.245 0.605,4.3475 1.66,6.15625 l 2.105,-0.81625 c -0.4575,-1.20625 -0.7075,-2.51125 -0.7075,-3.8775 0,-2.14 0.6175,-4.14 1.68125,-5.8275 l 9.185,15.895 8.16375,10.08125 3.26625,-0.87375 -6.62375,-10.0075 -2.67125,-5.4775 0.22875,-0.11125 3.055,4.88875"
         style="fill:#000000;fill-opacity:1;fill-rule:nonzero;stroke:none"
         id="path843" />
    </g>
  </g>
</svg>
